<svg width="312" height="94" viewBox="0 0 312 94" fill="none" xmlns="http://www.w3.org/2000/svg">
<path d="M37.6 16.96C40.16 15.68 43.48 14.16 47.56 12.4C51.72 10.64 56.2 8.99999 61 7.47999C65.88 5.95999 70.88 4.67999 76 3.63999C81.2 2.51999 86.08 1.95999 90.64 1.95999C95.28 1.95999 99.44 2.67999 103.12 4.11999C106.8 5.55999 109.56 8 111.4 11.44C112.2 12.96 112.36 14.44 111.88 15.88C111.4 17.24 110.48 18.56 109.12 19.84C107.84 21.04 106.28 22.16 104.44 23.2C102.6 24.16 100.72 25.04 98.8 25.84C96.88 26.56 95.08 27.12 93.4 27.52C91.72 27.92 90.44 28.12 89.56 28.12C87.56 28.2 85.84 28 84.4 27.52C82.96 26.96 81.88 26.36 81.16 25.72C80.44 25 80.16 24.32 80.32 23.68C80.48 23.04 81.16 22.64 82.36 22.48C83.32 22.32 84.64 22.04 86.32 21.64C88.08 21.16 89.92 20.6 91.84 19.96C93.84 19.32 95.8 18.6 97.72 17.8C99.64 16.92 101.28 16.08 102.64 15.28C104.08 14.4 105.08 13.52 105.64 12.64C106.2 11.76 106.12 10.92 105.4 10.12C103.72 8.44 101.12 7.56 97.6 7.47999C94.08 7.32 90 7.8 85.36 8.92C80.72 9.96 75.72 11.52 70.36 13.6C65 15.6 59.6 17.92 54.16 20.56C48.72 23.2 43.44 26.04 38.32 29.08C33.28 32.04 28.72 35.04 24.64 38.08C20.56 41.12 17.2 44.08 14.56 46.96C11.92 49.84 10.36 52.4 9.88 54.64C9.56 56.16 9.96 57.04 11.08 57.28C12.2 57.52 13.56 57.52 15.16 57.28C16.76 56.96 18.36 56.52 19.96 55.96C21.64 55.4 22.84 55.04 23.56 54.88C26.68 54.08 29.92 53.2 33.28 52.24C36.72 51.2 40.16 50.28 43.6 49.48C47.04 48.6 50.44 47.88 53.8 47.32C57.24 46.68 60.6 46.4 63.88 46.48C65.8 46.56 67.88 47.16 70.12 48.28C72.44 49.32 74.44 50.72 76.12 52.48C77.88 54.24 79.08 56.28 79.72 58.6C80.36 60.84 80 63.2 78.64 65.68C77.12 68.32 74.76 70.96 71.56 73.6C68.44 76.24 64.8 78.72 60.64 81.04C56.48 83.36 52.04 85.4 47.32 87.16C42.6 89 37.92 90.4 33.28 91.36C28.72 92.4 24.4 92.92 20.32 92.92C16.24 93 12.76 92.4 9.88 91.12C7.8 90.16 6 88.68 4.48 86.68C3.04 84.76 2.08 82.72 1.6 80.56C1.12 78.32 1.28 76.2 2.08 74.2C2.88 72.12 4.48 70.48 6.88 69.28C7.68 68.96 8.56 68.96 9.52 69.28C10.48 69.6 11.28 70.08 11.92 70.72C12.64 71.28 13.08 71.92 13.24 72.64C13.48 73.28 13.28 73.8 12.64 74.2C9.76 76.04 7.88 77.64 7 79C6.12 80.36 5.96 81.48 6.52 82.36C7.08 83.24 8.2 83.88 9.88 84.28C11.56 84.76 13.52 85 15.76 85C18 85 20.36 84.84 22.84 84.52C25.32 84.2 27.68 83.68 29.92 82.96C36.72 80.88 43.4 78.24 49.96 75.04C56.6 71.76 62.92 67.36 68.92 61.84C71.88 59.12 73.28 57.16 73.12 55.96C73.04 54.68 71.88 53.96 69.64 53.8C67.48 53.64 64.52 53.88 60.76 54.52C57 55.16 52.96 55.96 48.64 56.92C44.4 57.8 40.12 58.72 35.8 59.68C31.48 60.64 27.72 61.36 24.52 61.84C23 62.08 21.32 62.2 19.48 62.2C17.72 62.12 15.96 61.96 14.2 61.72C12.52 61.4 10.88 60.96 9.28 60.4C7.76 59.76 6.48 58.96 5.44 58C2.32 55.2 1.16 52.04 1.96 48.52C2.76 45 4.8 41.4 8.08 37.72C11.44 34.04 15.72 30.4 20.92 26.8C26.2 23.2 31.76 19.92 37.6 16.96ZM91.3384 47.2C91.8984 46.88 92.6184 46.72 93.4984 46.72C94.4584 46.72 95.3784 46.84 96.2584 47.08C97.1384 47.32 97.8984 47.68 98.5384 48.16C99.1784 48.56 99.4584 49.04 99.3784 49.6C99.3784 50.32 98.8984 51.24 97.9384 52.36C97.0584 53.48 96.0984 54.6 95.0584 55.72C94.0184 56.76 93.0984 57.68 92.2984 58.48C91.4984 59.28 91.2184 59.68 91.4584 59.68C91.6984 59.68 92.2184 59.36 93.0184 58.72C93.8184 58.08 94.7384 57.28 95.7784 56.32C96.8984 55.36 98.0584 54.32 99.2584 53.2C100.538 52 101.738 50.88 102.858 49.84C103.978 48.8 104.978 47.92 105.858 47.2C106.738 46.48 107.338 46.04 107.658 45.88C108.378 45.64 109.138 45.64 109.938 45.88C110.738 46.04 111.498 46.32 112.218 46.72C112.938 47.04 113.538 47.48 114.018 48.04C114.498 48.52 114.778 49 114.858 49.48C114.938 50.52 114.298 51.96 112.938 53.8C111.578 55.56 109.938 57.72 108.018 60.28C110.338 57.88 112.538 55.68 114.618 53.68C116.378 52 118.018 50.4 119.538 48.88C121.138 47.28 122.258 46.28 122.898 45.88C123.458 45.48 124.178 45.36 125.058 45.52C126.018 45.68 126.898 46.04 127.698 46.6C128.578 47.08 129.298 47.72 129.858 48.52C130.418 49.32 130.658 50.12 130.578 50.92C130.498 51.32 130.138 51.96 129.498 52.84C128.858 53.72 128.058 54.68 127.098 55.72C126.218 56.68 125.298 57.72 124.338 58.84C123.378 59.88 122.538 60.84 121.818 61.72C121.098 62.6 120.578 63.32 120.258 63.88C120.018 64.36 120.138 64.56 120.618 64.48C120.938 64.4 121.858 63.84 123.378 62.8C124.898 61.68 126.538 60.48 128.298 59.2C130.138 57.84 131.898 56.6 133.578 55.48C135.258 54.28 136.418 53.48 137.058 53.08C138.418 52.36 139.378 52.08 139.938 52.24C140.578 52.4 140.338 53.16 139.218 54.52C138.578 55.24 137.618 56.32 136.338 57.76C135.138 59.2 133.778 60.72 132.258 62.32C130.738 63.84 129.218 65.24 127.698 66.52C126.178 67.8 124.818 68.6 123.618 68.92C122.418 69.32 121.138 69.4 119.778 69.16C118.498 68.92 117.298 68.52 116.178 67.96C115.138 67.4 114.218 66.72 113.418 65.92C112.698 65.12 112.298 64.32 112.218 63.52C112.218 63.12 112.338 62.6 112.578 61.96C112.898 61.24 113.258 60.52 113.658 59.8C114.138 59.08 114.578 58.44 114.978 57.88C115.378 57.24 115.658 56.84 115.818 56.68C115.018 57.48 114.058 58.48 112.938 59.68C111.818 60.8 110.658 61.92 109.458 63.04C108.338 64.08 107.218 65 106.098 65.8C105.058 66.6 104.218 67.04 103.578 67.12C102.538 67.36 101.458 67.12 100.338 66.4C99.2184 65.6 98.6584 64.76 98.6584 63.88C98.6584 63.56 98.8584 62.96 99.2584 62.08C99.6584 61.2 100.098 60.28 100.578 59.32C101.138 58.36 101.658 57.44 102.138 56.56C102.618 55.68 102.898 55.04 102.978 54.64C100.418 56.96 98.0984 59 96.0184 60.76C94.1784 62.36 92.4184 63.8 90.7384 65.08C89.1384 66.28 88.0984 66.96 87.6184 67.12C87.2184 67.28 86.6984 67.28 86.0584 67.12C85.3384 66.96 84.6584 66.72 84.0184 66.4C83.3784 66 82.8184 65.56 82.3384 65.08C81.7784 64.52 81.4584 63.96 81.3784 63.4C81.2184 62.84 81.5784 61.72 82.4584 60.04C83.2584 58.36 84.2584 56.64 85.4584 54.88C86.5784 53.04 87.6984 51.36 88.8184 49.84C90.0184 48.32 90.8584 47.44 91.3384 47.2ZM148.452 44.08C149.572 44.08 150.572 44.36 151.452 44.92C152.412 45.48 152.972 46.24 153.132 47.2C155.212 47.68 156.692 48.68 157.572 50.2C158.452 51.72 158.812 53.44 158.652 55.36C160.652 55.6 162.572 55.28 164.412 54.4C166.332 53.52 167.812 52.44 168.852 51.16C169.492 50.44 170.052 49.96 170.532 49.72C171.092 49.48 171.532 49.44 171.852 49.6C172.172 49.76 172.332 50.08 172.332 50.56C172.332 50.96 172.172 51.44 171.852 52C170.572 54.16 168.692 56.12 166.212 57.88C163.812 59.64 160.612 60.76 156.612 61.24C155.572 62.84 154.252 64.28 152.652 65.56C151.132 66.84 149.292 67.8 147.132 68.44C146.172 68.76 144.972 68.76 143.532 68.44C142.172 68.12 140.812 67.52 139.452 66.64C138.172 65.76 137.092 64.64 136.212 63.28C135.332 61.92 135.012 60.4 135.252 58.72C135.412 57.12 135.892 55.48 136.692 53.8C137.412 52.04 138.332 50.44 139.452 49C140.652 47.56 142.012 46.4 143.532 45.52C145.052 44.56 146.692 44.08 148.452 44.08ZM143.652 63.88C144.052 64.52 144.892 64.52 146.172 63.88C147.452 63.24 148.692 62.24 149.892 60.88C149.012 60.24 148.252 59.4 147.612 58.36C146.972 57.24 146.532 55.96 146.292 54.52C144.932 56.36 143.972 58.2 143.412 60.04C142.852 61.8 142.932 63.08 143.652 63.88ZM178.452 44.08C179.572 44.08 180.572 44.36 181.452 44.92C182.412 45.48 182.972 46.24 183.132 47.2C185.212 47.68 186.692 48.68 187.572 50.2C188.452 51.72 188.812 53.44 188.652 55.36C190.652 55.6 192.572 55.28 194.412 54.4C196.332 53.52 197.812 52.44 198.852 51.16C199.492 50.44 200.052 49.96 200.532 49.72C201.092 49.48 201.532 49.44 201.852 49.6C202.172 49.76 202.332 50.08 202.332 50.56C202.332 50.96 202.172 51.44 201.852 52C200.572 54.16 198.692 56.12 196.212 57.88C193.812 59.64 190.612 60.76 186.612 61.24C185.572 62.84 184.252 64.28 182.652 65.56C181.132 66.84 179.292 67.8 177.132 68.44C176.172 68.76 174.972 68.76 173.532 68.44C172.172 68.12 170.812 67.52 169.452 66.64C168.172 65.76 167.092 64.64 166.212 63.28C165.332 61.92 165.012 60.4 165.252 58.72C165.412 57.12 165.892 55.48 166.692 53.8C167.412 52.04 168.332 50.44 169.452 49C170.652 47.56 172.012 46.4 173.532 45.52C175.052 44.56 176.692 44.08 178.452 44.08ZM173.652 63.88C174.052 64.52 174.892 64.52 176.172 63.88C177.452 63.24 178.692 62.24 179.892 60.88C179.012 60.24 178.252 59.4 177.612 58.36C176.972 57.24 176.532 55.96 176.292 54.52C174.932 56.36 173.972 58.2 173.412 60.04C172.852 61.8 172.932 63.08 173.652 63.88ZM199.452 39.04C199.852 38.64 202.372 38.36 207.012 38.2C208.292 37.08 209.492 36.16 210.612 35.44C211.732 34.72 212.812 34.36 213.852 34.36C214.812 34.36 215.852 34.76 216.972 35.56C218.092 36.28 218.972 37.12 219.612 38.08C223.692 38.08 228.052 38.04 232.692 37.96C237.332 37.88 242.052 37.76 246.852 37.6C252.932 37.44 258.892 37.2 264.732 36.88C270.572 36.56 275.852 36.24 280.572 35.92C285.292 35.6 289.212 35.32 292.332 35.08C295.452 34.84 297.372 34.72 298.092 34.72C299.452 34.72 300.932 34.96 302.532 35.44C304.212 35.84 305.732 36.36 307.092 37C308.452 37.56 309.492 38.2 310.212 38.92C311.012 39.56 311.172 40.16 310.692 40.72C310.372 41.04 308.812 41.24 306.012 41.32C303.212 41.32 299.492 41.32 294.852 41.32C290.292 41.24 284.972 41.16 278.892 41.08C272.892 41 266.492 40.96 259.692 40.96C252.972 40.88 246.092 40.88 239.052 40.96C232.012 40.96 225.172 41.12 218.532 41.44C217.652 42.08 216.532 43.04 215.172 44.32C213.812 45.6 212.412 47 210.972 48.52C209.532 50.04 208.092 51.64 206.652 53.32C205.292 55 204.132 56.56 203.172 58C202.212 59.44 201.532 60.72 201.132 61.84C200.812 62.88 200.932 63.6 201.492 64C201.972 64.32 203.092 63.96 204.852 62.92C206.612 61.88 208.492 60.64 210.492 59.2C212.572 57.76 214.532 56.36 216.372 55C218.292 53.56 219.612 52.64 220.332 52.24C221.772 51.28 222.812 51.08 223.452 51.64C224.092 52.2 224.052 52.96 223.332 53.92C222.932 54.4 221.972 55.44 220.452 57.04C218.932 58.56 217.132 60.16 215.052 61.84C213.052 63.44 210.932 64.88 208.692 66.16C206.532 67.44 204.652 68.08 203.052 68.08C199.772 68.08 197.652 67.2 196.692 65.44C195.652 63.6 195.332 61.36 195.732 58.72C196.132 56 197.092 53.12 198.612 50.08C200.132 46.96 201.852 44.16 203.772 41.68C200.012 40.88 198.572 40 199.452 39.04ZM272.598 7.72C272.998 8.92 272.518 10.6 271.158 12.76C269.878 14.84 268.038 17.2 265.638 19.84C263.238 22.48 260.438 25.32 257.238 28.36C254.038 31.32 250.678 34.32 247.158 37.36C243.638 40.32 240.078 43.2 236.478 46C232.958 48.8 229.718 51.28 226.758 53.44C226.038 54.72 225.478 55.8 225.078 56.68C224.678 57.48 224.398 58.12 224.238 58.6C224.158 59.08 224.318 59.12 224.718 58.72C225.198 58.32 226.158 57.48 227.598 56.2C229.038 54.84 230.598 53.44 232.278 52C233.958 50.48 235.598 49.08 237.198 47.8C238.878 46.44 240.198 45.56 241.158 45.16C242.038 44.76 242.878 44.72 243.678 45.04C244.478 45.36 245.198 45.88 245.838 46.6C246.478 47.24 246.998 47.96 247.398 48.76C247.798 49.48 248.078 50.08 248.238 50.56C248.398 51.12 247.958 52.04 246.918 53.32C245.958 54.6 244.878 55.96 243.678 57.4C242.558 58.76 241.558 60 240.678 61.12C239.878 62.24 239.718 62.92 240.198 63.16C240.518 63.24 241.158 63.08 242.118 62.68C243.158 62.2 244.318 61.6 245.598 60.88C246.958 60.08 248.398 59.2 249.918 58.24C251.438 57.2 252.878 56.24 254.238 55.36C255.598 54.4 256.798 53.56 257.838 52.84C258.878 52.04 259.598 51.44 259.998 51.04C261.358 50 262.438 49.76 263.238 50.32C264.118 50.8 264.158 51.56 263.358 52.6C262.958 53.08 262.118 54 260.838 55.36C259.638 56.72 258.158 58.2 256.398 59.8C254.718 61.32 252.878 62.76 250.878 64.12C248.958 65.4 247.118 66.28 245.358 66.76C243.038 67.32 241.038 67.36 239.358 66.88C237.758 66.32 236.478 65.52 235.518 64.48C234.558 63.44 233.878 62.28 233.478 61C233.158 59.64 233.198 58.4 233.598 57.28C232.398 58.4 231.238 59.4 230.118 60.28C229.158 61.16 228.198 62 227.238 62.8C226.278 63.6 225.518 64.24 224.958 64.72C224.398 65.28 223.598 65.76 222.558 66.16C221.598 66.48 220.558 66.68 219.438 66.76C218.397 66.76 217.477 66.6 216.677 66.28C215.797 65.88 215.277 65.2 215.117 64.24C214.957 63.28 215.557 61.16 216.917 57.88C218.277 54.6 220.158 50.76 222.558 46.36C225.038 41.96 227.878 37.28 231.078 32.32C234.278 27.28 237.558 22.56 240.918 18.16C244.358 13.76 247.718 9.96 250.998 6.76C254.358 3.55999 257.358 1.51999 259.998 0.639996C260.798 0.319995 261.798 0.199995 262.998 0.279994C264.278 0.279994 265.518 0.559995 266.718 1.12C267.918 1.6 269.038 2.39999 270.078 3.51999C271.198 4.56 272.038 5.96 272.598 7.72ZM267.918 4.96C267.598 4.56 266.838 4.84 265.638 5.79999C264.518 6.76 263.078 8.16 261.318 10C259.638 11.76 257.718 13.88 255.558 16.36C253.478 18.76 251.358 21.28 249.198 23.92C244.158 30.08 238.478 37.16 232.158 45.16C233.118 44.36 234.758 42.92 237.077 40.84C239.398 38.68 241.958 36.24 244.758 33.52C247.558 30.72 250.438 27.8 253.398 24.76C256.358 21.64 258.958 18.72 261.198 16C263.518 13.28 265.318 10.92 266.598 8.92C267.958 6.92 268.398 5.6 267.918 4.96ZM273.475 40.84C272.995 40.84 272.395 40.72 271.675 40.48C270.955 40.24 270.275 39.92 269.635 39.52C269.075 39.12 268.595 38.68 268.195 38.2C267.875 37.64 267.755 37.08 267.835 36.52C267.915 36.04 268.115 35.4 268.435 34.6C268.835 33.8 269.275 33.04 269.755 32.32C270.235 31.52 270.755 30.84 271.315 30.28C271.955 29.72 272.555 29.36 273.115 29.2C273.675 29.12 274.355 29.24 275.155 29.56C275.955 29.8 276.715 30.2 277.435 30.76C278.155 31.24 278.715 31.8 279.115 32.44C279.595 33 279.795 33.48 279.715 33.88C279.715 34.36 279.475 35 278.995 35.8C278.515 36.52 277.955 37.24 277.315 37.96C276.675 38.68 275.995 39.32 275.275 39.88C274.555 40.44 273.955 40.76 273.475 40.84ZM278.035 52.6C279.635 51.16 280.835 50.72 281.635 51.28C282.435 51.84 282.115 53 280.675 54.76C279.715 55.96 278.555 57.24 277.195 58.6C275.835 59.88 274.435 61.12 272.995 62.32C271.635 63.44 270.355 64.44 269.155 65.32C267.955 66.12 267.035 66.6 266.395 66.76C265.515 66.84 264.475 66.68 263.275 66.28C262.155 65.88 261.035 65.28 259.915 64.48C258.875 63.68 258.035 62.72 257.395 61.6C256.675 60.4 256.395 59.08 256.555 57.64C256.715 56.28 257.115 54.8 257.755 53.2C258.315 51.52 258.995 50 259.795 48.64C260.595 47.28 261.395 46.16 262.195 45.28C262.995 44.4 263.715 44 264.355 44.08C264.915 44.24 265.515 44.48 266.155 44.8C266.795 45.04 267.355 45.36 267.835 45.76C268.395 46.08 268.835 46.48 269.155 46.96C269.475 47.44 269.595 48 269.515 48.64C269.435 49.28 269.075 50.24 268.435 51.52C267.795 52.72 267.155 53.96 266.515 55.24C265.875 56.52 265.315 57.68 264.835 58.72C264.355 59.76 264.275 60.4 264.595 60.64C264.835 60.8 265.395 60.72 266.275 60.4C267.235 60 268.315 59.44 269.515 58.72C270.795 58 272.155 57.12 273.595 56.08C275.115 55.04 276.595 53.88 278.035 52.6ZM307.314 52.72C308.834 51.6 309.674 51.24 309.834 51.64C309.994 52.04 309.714 52.8 308.994 53.92C308.274 55.12 307.234 56.52 305.874 58.12C304.594 59.72 303.154 61.24 301.554 62.68C299.954 64.12 298.274 65.4 296.514 66.52C294.754 67.64 293.114 68.32 291.594 68.56C290.554 68.72 289.194 68.48 287.514 67.84C285.834 67.12 284.194 66.12 282.594 64.84C281.074 63.56 279.794 62.08 278.754 60.4C277.714 58.72 277.354 57 277.674 55.24C277.914 53.8 278.514 52.44 279.474 51.16C280.434 49.8 281.514 48.64 282.714 47.68C283.914 46.64 285.114 45.84 286.314 45.28C287.594 44.64 288.674 44.32 289.554 44.32C290.274 44.32 291.074 44.52 291.954 44.92C292.914 45.32 293.754 45.84 294.474 46.48C295.274 47.12 295.874 47.88 296.274 48.76C296.754 49.56 296.954 50.4 296.874 51.28C296.714 52.16 296.114 53.2 295.074 54.4C294.034 55.52 292.874 56.64 291.594 57.76C290.154 59.04 288.474 60.36 286.554 61.72C288.314 62.2 291.114 61.64 294.954 60.04C298.874 58.44 302.994 56 307.314 52.72ZM293.154 50.44C292.834 50.2 292.074 50.4 290.874 51.04C289.754 51.6 288.634 52.36 287.514 53.32C286.394 54.28 285.434 55.36 284.634 56.56C283.914 57.68 283.754 58.64 284.154 59.44C284.634 59.2 285.394 58.64 286.434 57.76C287.554 56.88 288.634 55.92 289.674 54.88C290.794 53.84 291.714 52.92 292.434 52.12C293.154 51.24 293.394 50.68 293.154 50.44Z" fill="white"/>
</svg>
